# Blender v2.93.1 OBJ File: 'Skybox_008.blend'
# www.blender.org
o collision_landing_object_collision_object.001
v 3.395646 0.073747 1.605645
v 0.741686 0.044254 1.957383
v 14.914217 -0.317817 15.517681
v 13.092114 -0.180561 19.437901
v -144.253555 -1.678137 -389.840881
v 24.806171 -0.521838 16.476276
v 17.190979 -0.196979 20.288727
v 24.994474 -0.183681 20.011051
v 5.151390 0.043202 6.649642
v 2.632597 0.000000 7.182525
v -142.498276 -1.678665 -390.111694
v 5.298764 0.041347 12.592712
v 7.046710 0.002591 10.675663
v 8.014504 0.004651 15.680189
v 8.733953 0.049827 12.485958
v 6.031893 0.000000 8.715534
v 3.434028 0.020267 9.120270
v -27.143469 -0.187971 -80.118317
v -28.952749 -0.219903 -79.859558
v -7.129334 0.025616 -20.259407
v -4.847497 0.036874 -20.353004
v -19.021519 -0.075549 -58.794643
v -21.197214 -0.088029 -58.347523
v -22.222530 -0.187971 -67.089211
v -24.422195 -0.219073 -66.748413
v 125.385406 -0.382365 8.788301
v 125.346153 -0.179829 14.134704
v 134.050644 -0.088082 14.196480
v 128.745300 -0.070248 27.539299
v 134.286865 -0.018287 27.228012
v 133.702011 -0.768242 110.564110
v 138.068558 -0.716281 110.699593
v 118.481407 -0.912178 169.715271
v 122.348595 -0.860217 169.850739
v 201.387527 -1.414658 -82.472534
v 204.554794 -1.414658 -81.516380
v 11.056678 -0.040526 14.025903
v 3.542688 0.139163 1.477126
v 5.298432 0.108618 6.521122
v 7.193751 0.068006 10.547144
v 8.880995 0.115243 12.357439
v 6.178935 0.065416 8.587014
v 11.203720 0.024889 13.897383
v 4.433892 0.254444 1.019969
v 6.189636 0.223899 6.063967
v 8.095043 0.163725 10.006002
v 9.640732 0.126966 11.867554
v 6.856552 0.231936 8.174517
v 11.551725 0.010331 13.763397
v 5.194242 0.174258 12.688644
v 3.359054 0.034487 9.185838
v 3.168341 0.057500 9.345963
v 0.666711 0.058475 2.022951
v 2.557622 0.014221 7.248094
v 0.439386 0.070323 2.220505
v 2.330297 0.026069 7.445648
v -4.635511 0.170436 -20.439796
v -3.872029 0.204007 -20.975445
v 36.302475 -0.818895 15.486457
v -7.222978 0.203452 -20.253471
v -7.485378 0.324793 -20.058399
v 36.345062 -0.610897 19.164108
v 56.339001 -0.142151 18.004471
v 56.158886 -0.358949 13.958601
v -47.844288 -0.814788 -137.250565
v -49.970573 -0.826600 -136.903671
vn 0.0257 0.9995 0.0199
vn 0.0019 0.9966 -0.0826
vn -0.0045 0.9967 -0.0808
vn 0.0011 0.9966 -0.0827
vn -0.0002 1.0000 -0.0033
vn -0.0148 0.9998 0.0112
vn 0.0070 1.0000 -0.0050
vn -0.0032 0.9997 -0.0231
vn 0.0104 0.9998 0.0165
vn -0.0171 0.9998 0.0063
vn -0.0173 0.9998 0.0060
vn -0.0174 0.9998 0.0061
vn -0.0057 1.0000 -0.0019
vn -0.0028 1.0000 -0.0011
vn -0.0029 1.0000 -0.0013
vn -0.0086 1.0000 -0.0016
vn -0.0083 1.0000 -0.0023
vn -0.0058 1.0000 0.0030
vn -0.0212 0.9998 0.0054
vn -0.0186 0.9998 0.0062
vn 0.0113 0.9992 -0.0378
vn -0.0023 0.9997 -0.0241
vn -0.0017 0.9997 -0.0242
vn -0.0167 0.9995 -0.0276
vn -0.0129 0.9999 -0.0023
vn -0.0124 0.9999 -0.0085
vn -0.0137 0.9999 -0.0068
vn -0.0122 0.9999 0.0089
vn -0.0119 0.9999 -0.0007
vn -0.0177 0.9995 -0.0260
vn 0.0598 0.9974 -0.0391
vn 0.0709 0.9974 0.0128
vn 0.0838 0.9965 0.0065
vn -0.2903 0.9453 0.1490
vn -0.1599 0.9416 0.2964
vn -0.3172 0.9412 0.1161
vn -0.2937 0.9449 0.1449
vn -0.2444 0.9482 0.2030
vn -0.1064 0.9934 0.0431
vn 0.0113 0.9991 0.0415
vn -0.1122 0.9932 0.0317
vn -0.1545 0.9779 0.1409
vn -0.0778 0.9959 0.0465
vn 0.7927 0.3874 -0.4706
vn 0.7377 0.6741 -0.0380
vn 0.7558 0.4894 -0.4349
vn 0.1312 0.9893 -0.0646
vn 0.1479 0.9880 -0.0452
vn 0.0452 0.9989 -0.0079
vn 0.0776 0.9957 -0.0507
vn -0.0799 0.9223 0.3780
vn -0.1072 0.9934 0.0414
vn -0.2403 0.9666 0.0889
vn -0.3660 0.9130 0.1799
vn -0.2438 0.9656 0.0908
vn -0.0690 0.9970 0.0342
vn 0.0880 0.9900 0.1099
vn -0.0782 0.9962 0.0373
vn 0.0430 0.9990 -0.0080
vn 0.1837 0.9812 0.0598
vn 0.0355 0.9994 -0.0053
vn 0.0464 0.9977 -0.0497
vn 0.0161 0.9994 -0.0307
vn 0.0215 0.9993 -0.0307
vn -0.0072 0.9987 -0.0499
vn -0.0286 0.9991 -0.0323
vn -0.0261 0.9991 -0.0323
vn -0.0069 0.9999 -0.0081
vn 0.0240 0.9996 0.0168
vn 0.0162 0.9996 -0.0251
vn 0.0298 0.9993 -0.0242
vn 0.0341 0.9991 -0.0266
vn -0.0058 1.0000 -0.0013
vn -0.0095 0.9999 0.0119
vn 0.0098 0.9999 -0.0113
vn -0.0020 0.9999 0.0137
vn -0.0178 0.9998 -0.0031
vn -0.0139 0.9999 0.0053
vn -0.0132 0.9999 0.0056
vn -0.0087 1.0000 0.0003
vn -0.0088 1.0000 0.0002
vn -0.0110 0.9999 -0.0005
vn -0.0073 1.0000 -0.0027
vn -0.0074 1.0000 -0.0026
vn -0.0069 1.0000 0.0010
vn -0.0125 0.9999 0.0048
vn -0.0108 0.9999 0.0053
vn -0.0033 1.0000 0.0048
vn -0.0018 0.9992 -0.0397
vn -0.0017 0.9992 -0.0397
vn 0.0052 0.9991 -0.0420
vn -0.0145 0.9999 -0.0072
vn -0.0145 0.9999 -0.0071
vn -0.0148 0.9999 -0.0061
vn -0.0089 0.9999 0.0089
vn -0.0134 0.9999 -0.0010
vn 0.0034 0.9999 -0.0113
vn 0.0296 0.9975 -0.0650
vn 0.0073 0.9976 -0.0691
vn 0.0208 0.9996 -0.0206
vn 0.0471 0.9988 0.0139
vn -0.1811 0.9786 0.0976
vn -0.0813 0.9959 0.0408
vn -0.0018 0.9998 0.0212
vn 0.4786 0.8777 0.0248
vn 0.3761 0.9081 -0.1840
vn 0.4208 0.8840 -0.2034
vn 0.0316 0.9992 -0.0235
vn -0.0360 0.9993 0.0113
vn -0.4997 0.8608 0.0970
vn -0.4022 0.9015 0.1596
vn -0.3962 0.9021 0.1707
vn 0.2998 0.9258 -0.2303
vn 0.2218 0.9714 -0.0844
vn 0.2334 0.9691 -0.0805
vn 0.8655 0.3575 -0.3509
vn 0.7809 0.5550 -0.2867
vn 0.7870 0.5493 -0.2811
vn 0.0308 0.9970 -0.0704
vn 0.0308 0.9970 -0.0708
vn 0.0419 0.9964 -0.0731
vn -0.0257 0.9990 -0.0361
vn -0.0256 0.9990 -0.0362
vn -0.0167 0.9991 -0.0387
vn -0.0183 0.9998 -0.0044
s off
f 14//1 37//1 15//1
f 6//2 7//3 8//4
f 66//5 11//5 5//5
f 1//6 10//6 9//6
f 17//7 13//7 16//7
f 12//8 15//8 13//8
f 9//9 17//9 16//9
f 25//10 18//11 19//12
f 2//13 21//14 20//15
f 20//16 22//17 23//17
f 23//18 24//19 25//20
f 64//21 27//22 26//23
f 26//24 27//24 28//24
f 28//25 29//26 30//27
f 30//28 31//28 32//28
f 31//29 34//29 32//29
f 28//30 35//30 26//30
f 4//31 3//32 37//33
f 16//34 40//34 42//34
f 37//35 41//35 15//35
f 1//36 39//36 38//36
f 9//37 42//37 39//37
f 15//38 40//38 13//38
f 38//39 45//39 44//39
f 43//40 47//40 41//40
f 39//41 48//41 45//41
f 42//42 46//42 48//42
f 41//43 46//43 40//43
f 12//44 52//45 50//46
f 17//47 54//47 51//47
f 10//48 53//48 54//48
f 54//49 55//49 56//49
f 51//50 56//50 52//50
f 3//51 43//51 37//51
f 44//52 57//52 38//52
f 38//53 21//54 1//55
f 53//56 61//57 55//58
f 2//59 60//60 53//61
f 6//62 62//63 59//64
f 59//65 63//66 64//67
f 19//68 65//68 66//68
f 14//69 4//69 37//69
f 6//70 3//71 7//72
f 66//73 65//73 11//73
f 1//74 2//74 10//74
f 17//75 12//75 13//75
f 12//76 14//76 15//76
f 9//77 10//77 17//77
f 25//78 24//78 18//79
f 2//80 1//81 21//82
f 20//83 21//84 22//85
f 23//86 22//87 24//88
f 64//89 63//90 27//91
f 28//92 27//93 29//94
f 30//95 29//95 31//95
f 31//96 33//96 34//96
f 28//97 36//97 35//97
f 4//98 7//99 3//100
f 16//34 13//34 40//34
f 37//35 43//35 41//35
f 1//36 9//36 39//36
f 9//37 16//37 42//37
f 15//38 41//38 40//38
f 38//39 39//39 45//39
f 43//101 49//101 47//101
f 39//102 42//102 48//102
f 42//103 40//103 46//103
f 41//104 47//104 46//104
f 12//105 17//106 52//107
f 17//47 10//47 54//47
f 10//48 2//48 53//48
f 54//49 53//49 55//49
f 51//108 54//108 56//108
f 44//109 58//109 57//109
f 38//110 57//111 21//112
f 53//113 60//114 61//115
f 2//116 20//117 60//118
f 6//119 8//120 62//121
f 59//122 62//123 63//124
f 19//125 18//125 65//125
