# Blender v3.0.0 OBJ File: 'LOGO600SE_V3_Tailrotor_Mechanics_021.blend'
# www.blender.org
mtllib Logo600SE_V3_Tailrotor_Sleeve_K.mtl
o Sleeve_K_Tailrotor_Sleeve
v -0.001793 -0.002453 -0.008201
v -0.002648 -0.001564 -0.008201
v -0.003098 -0.000416 -0.008201
v -0.003075 0.000817 -0.008201
v -0.002581 0.001947 -0.008201
v -0.001693 0.002802 -0.008201
v -0.000545 0.003252 -0.008201
v 0.000688 0.003229 -0.008201
v 0.001819 0.002736 -0.008201
v 0.002674 0.001847 -0.008201
v 0.003124 0.000699 -0.008201
v 0.003101 -0.000534 -0.008201
v 0.002607 -0.001664 -0.008201
v 0.001719 -0.002520 -0.008201
v -0.000662 -0.002946 -0.008201
v 0.000571 -0.002970 -0.008201
v -0.001793 -0.002453 -0.003896
v -0.002648 -0.001564 -0.003896
v -0.003098 -0.000416 -0.003896
v -0.003075 0.000817 -0.003896
v -0.002581 0.001947 -0.003896
v -0.001693 0.002802 -0.003896
v -0.000545 0.003252 -0.003896
v 0.000688 0.003229 -0.003896
v 0.001819 0.002736 -0.003896
v 0.002674 0.001847 -0.003896
v 0.003124 0.000699 -0.003896
v 0.003101 -0.000534 -0.003896
v 0.002607 -0.001664 -0.003896
v 0.001719 -0.002520 -0.003896
v -0.000662 -0.002946 -0.003896
v 0.000571 -0.002970 -0.003896
v -0.003415 -0.004783 -0.003896
v -0.003415 -0.004783 0.003848
v -0.005038 -0.003097 -0.003896
v -0.005038 -0.003097 0.003848
v -0.005893 -0.000917 -0.003896
v -0.005893 -0.000917 0.003848
v -0.005848 0.001423 -0.003896
v -0.005848 0.001423 0.003848
v -0.004912 0.003569 -0.003896
v -0.004912 0.003569 0.003848
v -0.003225 0.005193 -0.003896
v -0.003225 0.005193 0.003848
v -0.001046 0.006047 -0.003896
v -0.001046 0.006047 0.003848
v 0.001295 0.006003 -0.003896
v 0.001295 0.006003 0.003848
v 0.003440 0.005066 -0.003896
v 0.003440 0.005066 0.003848
v 0.005064 0.003379 -0.003896
v 0.005064 0.003379 0.003848
v 0.005919 0.001200 -0.003896
v 0.005919 0.001200 0.003848
v 0.005874 -0.001141 -0.003896
v 0.005874 -0.001141 0.003848
v 0.004938 -0.003286 -0.003896
v 0.004938 -0.003286 0.003848
v 0.003251 -0.004910 -0.003896
v 0.003251 -0.004910 0.003848
v 0.001071 -0.005765 -0.003896
v 0.001071 -0.005765 0.003848
v -0.001269 -0.005720 -0.003896
v -0.001269 -0.005720 0.003848
v -0.001415 0.005353 0.001153
v 0.001710 0.005289 0.001046
v 0.001685 0.005294 -0.001545
v -0.001440 0.005358 -0.001302
v -0.001526 0.011083 -0.001287
v -0.001501 0.011078 0.001169
v 0.001600 0.011019 -0.001530
v 0.001625 0.011014 0.001062
v -0.000662 -0.002946 -0.008201
v -0.001793 -0.002453 -0.008201
v -0.002648 -0.001564 -0.008201
v -0.003098 -0.000416 -0.008201
v -0.003075 0.000817 -0.008201
v -0.002581 0.001947 -0.008201
v -0.001693 0.002802 -0.008201
v -0.000545 0.003252 -0.008201
v 0.000688 0.003229 -0.008201
v 0.001819 0.002736 -0.008201
v 0.002674 0.001847 -0.008201
v 0.003124 0.000699 -0.008201
v 0.003101 -0.000534 -0.008201
v 0.002607 -0.001664 -0.008201
v 0.001719 -0.002520 -0.008201
v 0.000571 -0.002970 -0.008201
v -0.000662 -0.002946 -0.003896
v -0.001793 -0.002453 -0.003896
v -0.002648 -0.001564 -0.003896
v -0.003098 -0.000416 -0.003896
v -0.003075 0.000817 -0.003896
v -0.002581 0.001947 -0.003896
v -0.001693 0.002802 -0.003896
v -0.000545 0.003252 -0.003896
v 0.000688 0.003229 -0.003896
v 0.001819 0.002736 -0.003896
v 0.002674 0.001847 -0.003896
v 0.003124 0.000699 -0.003896
v 0.003101 -0.000534 -0.003896
v 0.002607 -0.001664 -0.003896
v 0.001719 -0.002520 -0.003896
v 0.000571 -0.002970 -0.003896
v -0.001269 -0.005720 -0.003896
v -0.003415 -0.004783 -0.003896
v -0.003415 -0.004783 0.003848
v -0.001269 -0.005720 0.003848
v -0.005038 -0.003097 -0.003896
v -0.005038 -0.003097 0.003848
v -0.005893 -0.000917 -0.003896
v -0.005893 -0.000917 0.003848
v -0.005848 0.001423 -0.003896
v -0.005848 0.001423 0.003848
v -0.004912 0.003569 -0.003896
v -0.004912 0.003569 0.003848
v -0.003225 0.005193 -0.003896
v -0.003225 0.005193 0.003848
v -0.001046 0.006047 -0.003896
v -0.001046 0.006047 0.003848
v 0.001295 0.006003 -0.003896
v 0.001295 0.006003 0.003848
v 0.003440 0.005066 -0.003896
v 0.003440 0.005066 0.003848
v 0.005064 0.003379 -0.003896
v 0.005064 0.003379 0.003848
v 0.005919 0.001200 -0.003896
v 0.005919 0.001200 0.003848
v 0.005874 -0.001141 -0.003896
v 0.005874 -0.001141 0.003848
v 0.004938 -0.003286 -0.003896
v 0.004938 -0.003286 0.003848
v 0.003251 -0.004910 -0.003896
v 0.003251 -0.004910 0.003848
v 0.001071 -0.005765 -0.003896
v 0.001071 -0.005765 0.003848
v -0.001440 0.005358 -0.001302
v -0.001440 0.005358 -0.001302
v -0.001415 0.005353 0.001153
v -0.001415 0.005353 0.001153
v 0.001685 0.005294 -0.001545
v 0.001685 0.005294 -0.001545
v 0.001710 0.005289 0.001046
v 0.001710 0.005289 0.001046
v -0.001526 0.011083 -0.001287
v -0.001526 0.011083 -0.001287
v -0.001501 0.011078 0.001169
v -0.001501 0.011078 0.001169
v 0.001600 0.011019 -0.001530
v 0.001600 0.011019 -0.001530
v 0.001625 0.011014 0.001062
v 0.001625 0.011014 0.001062
vt 0.437500 1.000000
vt 0.500000 1.000000
vt 0.500000 1.000000
vt 0.437500 1.000000
vt 0.000000 1.000000
vt 0.062500 1.000000
vt 0.062500 1.000000
vt 0.000000 1.000000
vt 0.937500 1.000000
vt 1.000000 1.000000
vt 1.000000 1.000000
vt 0.937500 1.000000
vt 0.125000 1.000000
vt 0.125000 1.000000
vt 0.625000 1.000000
vt 0.687500 1.000000
vt 0.687500 1.000000
vt 0.625000 1.000000
vt 0.562500 1.000000
vt 0.562500 1.000000
vt 0.750000 1.000000
vt 0.750000 1.000000
vt 0.812500 1.000000
vt 0.812500 1.000000
vt 0.312500 1.000000
vt 0.375000 1.000000
vt 0.375000 1.000000
vt 0.312500 1.000000
vt 0.341844 0.471731
vt 0.250000 0.490000
vt 0.158156 0.471731
vt 0.080294 0.419706
vt 0.028268 0.341844
vt 0.010001 0.250000
vt 0.028268 0.158156
vt 0.080294 0.080294
vt 0.158156 0.028269
vt 0.250000 0.010000
vt 0.341844 0.028269
vt 0.419706 0.080294
vt 0.471732 0.158156
vt 0.489999 0.250000
vt 0.471732 0.341844
vt 0.419706 0.419706
vt 0.125000 1.000000
vt 0.187500 1.000000
vt 0.187500 1.000000
vt 0.125000 1.000000
vt 0.875000 1.000000
vt 0.875000 1.000000
vt 0.000000 1.000000
vt 0.062500 1.000000
vt 0.062500 1.000000
vt 0.000000 1.000000
vt 0.250000 1.000000
vt 0.250000 1.000000
vt 0.500000 1.000000
vt 0.562500 1.000000
vt 0.562500 1.000000
vt 0.500000 1.000000
vt 0.937500 1.000000
vt 1.000000 1.000000
vt 1.000000 1.000000
vt 0.937500 1.000000
vt 0.375000 1.000000
vt 0.437500 1.000000
vt 0.437500 1.000000
vt 0.375000 1.000000
vt 0.312500 1.000000
vt 0.312500 1.000000
vt 0.625000 1.000000
vt 0.625000 1.000000
vt 0.250000 1.000000
vt 0.250000 1.000000
vt 0.187500 1.000000
vt 0.187500 1.000000
vt 0.687500 1.000000
vt 0.750000 1.000000
vt 0.750000 1.000000
vt 0.687500 1.000000
vt 0.812500 1.000000
vt 0.812500 1.000000
vt 0.875000 1.000000
vt 0.875000 1.000000
vt 0.750000 0.490000
vt 0.841844 0.471731
vt 0.919706 0.419706
vt 0.971732 0.341844
vt 0.989999 0.250000
vt 0.971732 0.158156
vt 0.919706 0.080294
vt 0.841844 0.028269
vt 0.750000 0.010000
vt 0.658156 0.028269
vt 0.580294 0.080294
vt 0.528268 0.158156
vt 0.510001 0.250000
vt 0.528268 0.341844
vt 0.580294 0.419706
vt 0.658156 0.471731
vt 0.062500 0.500000
vt 0.062500 1.000000
vt 0.000000 1.000000
vt 0.000000 0.500000
vt 0.125000 0.500000
vt 0.125000 1.000000
vt 0.187500 0.500000
vt 0.187500 1.000000
vt 0.250000 0.500000
vt 0.250000 1.000000
vt 0.312500 0.500000
vt 0.312500 1.000000
vt 0.375000 0.500000
vt 0.375000 1.000000
vt 0.437500 0.500000
vt 0.437500 0.695208
vt 0.437500 0.797147
vt 0.437500 1.000000
vt 0.500000 0.500000
vt 0.500000 0.718221
vt 0.562500 0.500000
vt 0.562500 1.000000
vt 0.500000 1.000000
vt 0.500000 0.826766
vt 0.625000 0.500000
vt 0.625000 1.000000
vt 0.687500 0.500000
vt 0.687500 1.000000
vt 0.750000 0.500000
vt 0.750000 1.000000
vt 0.812500 0.500000
vt 0.812500 1.000000
vt 0.875000 0.500000
vt 0.875000 1.000000
vt 0.937500 0.500000
vt 0.937500 1.000000
vt 1.000000 0.500000
vt 1.000000 1.000000
vt 0.437500 0.695208
vt 0.500000 0.718221
vt 0.500000 0.826766
vt 0.437500 0.797147
vt 0.500000 0.718221
vt 0.500000 0.826766
vt 0.500000 0.826766
vt 0.500000 0.718221
vt 0.437500 0.695208
vt 0.500000 0.718221
vt 0.500000 0.718221
vt 0.437500 0.695208
vt 0.437500 0.797147
vt 0.437500 0.695208
vt 0.437500 0.695208
vt 0.437500 0.797147
vt 0.500000 0.826766
vt 0.437500 0.797147
vt 0.437500 0.797147
vt 0.500000 0.826766
vn -0.1764 0.9843 0.0000
vn 0.2137 0.9769 -0.0000
vn -0.2137 -0.9769 0.0000
vn -0.5713 -0.8208 0.0000
vn 0.1764 -0.9843 0.0000
vn -0.8419 -0.5397 -0.0000
vn 0.8419 0.5397 -0.0000
vn 0.9843 0.1764 -0.0000
vn 0.5713 0.8208 -0.0000
vn 0.9769 -0.2137 0.0000
vn 0.8208 -0.5712 0.0000
vn -0.8208 0.5713 -0.0000
vn -0.5397 0.8419 -0.0000
vn 0.0000 0.0000 -1.0000
vn 0.5397 -0.8419 0.0000
vn -0.9769 0.2137 -0.0000
vn -0.9843 -0.1765 -0.0000
vn 0.0000 0.0000 1.0000
vn -0.9843 -0.1764 0.0000
vn -0.4665 0.8845 -0.0003
vn -0.0832 0.9866 -0.1401
vn -0.1304 0.9877 -0.0860
vn -0.1290 0.9877 0.0886
vn -0.0727 0.9853 0.1547
vn 0.1145 0.9834 -0.1411
vn 0.1675 0.9825 -0.0820
vn 0.4994 0.8664 0.0003
vn 0.1225 0.9799 0.1574
vn 0.1697 0.9809 0.0953
vn 0.8208 -0.5713 0.0000
vn 0.0207 0.9998 0.0020
vn 0.9998 0.0150 -0.0096
vn 0.0344 -0.0022 0.9994
vn -0.9998 -0.0150 0.0101
vn -0.0775 0.0016 -0.9970
g Sleeve_K_Tailrotor_Sleeve_Kunstoff_Schwarz
usemtl Kunstoff_Schwarz
s 1
f 96/1/1 97/2/2 81/3/2 80/4/1
f 89/5/3 90/6/4 74/7/4 73/8/3
f 104/9/5 89/10/3 73/11/3 88/12/5
f 90/6/4 91/13/6 75/14/6 74/7/4
f 99/15/7 100/16/8 84/17/8 83/18/7
f 98/19/9 99/15/7 83/18/7 82/20/9
f 100/16/8 101/21/10 85/22/10 84/17/8
f 101/21/10 102/23/11 86/24/11 85/22/10
f 94/25/12 95/26/13 79/27/13 78/28/12
f 16/29/14 15/30/14 1/31/14 2/32/14 3/33/14 4/34/14 5/35/14 6/36/14 7/37/14 8/38/14 9/39/14 10/40/14 11/41/14 12/42/14 13/43/14 14/44/14
f 109/45/14 111/46/14 19/47/14 18/48/14
f 102/23/11 103/49/15 87/50/15 86/24/11
f 105/51/14 106/52/14 17/53/14 31/54/14
f 111/46/14 113/55/14 20/56/14 19/47/14
f 121/57/14 123/58/14 25/59/14 24/60/14
f 135/61/14 105/62/14 31/63/14 32/64/14
f 106/52/14 109/45/14 18/48/14 17/53/14
f 117/65/14 119/66/14 23/67/14 22/68/14
f 115/69/14 117/65/14 22/68/14 21/70/14
f 123/58/14 125/71/14 26/72/14 25/59/14
f 97/2/2 98/19/9 82/20/9 81/3/2
f 103/49/15 104/9/5 88/12/5 87/50/15
f 93/73/16 94/25/12 78/28/12 77/74/16
f 92/75/17 93/73/16 77/74/16 76/76/17
f 91/13/6 92/75/17 76/76/17 75/14/6
f 119/66/14 121/57/14 24/60/14 23/67/14
f 127/77/14 129/78/14 28/79/14 27/80/14
f 129/78/14 131/81/14 29/82/14 28/79/14
f 131/81/14 133/83/14 30/84/14 29/82/14
f 125/71/14 127/77/14 27/80/14 26/72/14
f 95/26/13 96/1/1 80/4/1 79/27/13
f 113/55/14 115/69/14 21/70/14 20/56/14
f 108/85/18 136/86/18 134/87/18 132/88/18 130/89/18 128/90/18 126/91/18 124/92/18 122/93/18 120/94/18 118/95/18 116/96/18 114/97/18 112/98/18 110/99/18 107/100/18
f 34/101/4 33/102/4 63/103/3 64/104/3
f 36/105/6 35/106/6 33/102/4 34/101/4
f 133/83/14 135/61/14 32/64/14 30/84/14
f 38/107/19 37/108/19 35/106/6 36/105/6
f 40/109/16 39/110/16 37/108/19 38/107/19
f 42/111/12 41/112/12 39/110/16 40/109/16
f 44/113/20 43/114/20 41/112/12 42/111/12
f 46/115/21 139/116/22 137/117/23 45/118/24 43/114/20 44/113/20
f 48/119/25 143/120/26 139/116/22 46/115/21
f 50/121/27 49/122/27 47/123/28 141/124/29 143/120/26 48/119/25
f 52/125/7 51/126/7 49/122/27 50/121/27
f 54/127/8 53/128/8 51/126/7 52/125/7
f 56/129/10 55/130/10 53/128/8 54/127/8
f 58/131/30 57/132/30 55/130/10 56/129/10
f 60/133/15 59/134/15 57/132/30 58/131/30
f 62/135/5 61/136/5 59/134/15 60/133/15
f 64/137/3 63/138/3 61/136/5 62/135/5
f 147/139/31 151/140/31 149/141/31 145/142/31
f 144/143/32 142/144/32 150/145/32 152/146/32
f 137/117/23 141/124/29 47/123/28 45/118/24
f 140/147/33 66/148/33 72/149/33 148/150/33
f 138/151/34 65/152/34 70/153/34 146/154/34
f 67/155/35 68/156/35 69/157/35 71/158/35
