# Blender v3.0.0 OBJ File: 'LOGO600SE_V3_Tailrotor_Mechanics_021.blend'
# www.blender.org
mtllib Logo600SE_V3_Tailrotor_Hinge_H0G0.mtl
o Hinge_H0G0_Tailrotor_Hinge_G0H0
v 0.000614 0.008004 0.001933
v 0.002050 0.008818 0.001883
v 0.001977 0.008739 -0.001524
v 0.000540 0.007925 -0.001475
v 0.002819 0.010279 0.001833
v 0.002746 0.010200 -0.001575
v 0.002675 0.011925 0.001798
v 0.002602 0.011846 -0.001610
v 0.001664 0.013231 0.001789
v 0.001591 0.013152 -0.001618
v 0.000107 0.013785 0.001810
v 0.000034 0.013706 -0.001598
v -0.001501 0.013409 0.001853
v -0.001574 0.013330 -0.001554
v -0.002650 0.012223 0.001905
v -0.002723 0.012144 -0.001502
v -0.002975 0.010604 0.001950
v -0.003048 0.010525 -0.001458
v -0.002373 0.009066 0.001973
v -0.002447 0.008987 -0.001435
v -0.001036 0.008096 0.001966
v -0.001109 0.008017 -0.001441
v 0.000216 -0.002457 0.001878
v 0.001751 -0.001846 0.001853
v 0.001739 -0.001952 -0.001554
v 0.000204 -0.002563 -0.001530
v 0.002711 -0.000503 0.001808
v 0.002699 -0.000608 -0.001599
v 0.002792 0.001147 0.001757
v 0.002780 0.001041 -0.001651
v 0.001968 0.002578 0.001715
v 0.001956 0.002472 -0.001692
v 0.000501 0.003337 0.001697
v 0.000489 0.003231 -0.001711
v -0.001144 0.003183 0.001707
v -0.001156 0.003077 -0.001700
v -0.002444 0.002164 0.001743
v -0.002456 0.002058 -0.001664
v -0.002987 0.000604 0.001794
v -0.002998 0.000499 -0.001614
v -0.002600 -0.001001 0.001842
v -0.002611 -0.001107 -0.001565
v -0.001406 -0.002142 0.001874
v -0.001417 -0.002248 -0.001534
v 0.000614 0.008004 0.001933
v 0.000614 0.008004 0.001933
v 0.002050 0.008818 0.001883
v 0.001977 0.008739 -0.001524
v 0.000540 0.007925 -0.001475
v 0.000540 0.007925 -0.001475
v 0.002819 0.010279 0.001833
v 0.002746 0.010200 -0.001575
v 0.002675 0.011925 0.001798
v 0.002602 0.011846 -0.001610
v 0.001664 0.013231 0.001789
v 0.001591 0.013152 -0.001618
v 0.000107 0.013785 0.001810
v 0.000034 0.013706 -0.001598
v -0.001501 0.013409 0.001853
v -0.001574 0.013330 -0.001554
v -0.002650 0.012223 0.001905
v -0.002723 0.012144 -0.001502
v -0.002975 0.010604 0.001950
v -0.003048 0.010525 -0.001458
v -0.002373 0.009066 0.001973
v -0.002447 0.008987 -0.001435
v -0.001036 0.008096 0.001966
v -0.001036 0.008096 0.001966
v -0.001109 0.008017 -0.001441
v -0.001109 0.008017 -0.001441
v 0.000216 -0.002457 0.001878
v 0.001751 -0.001846 0.001853
v 0.001739 -0.001952 -0.001554
v 0.000204 -0.002563 -0.001530
v 0.002711 -0.000503 0.001808
v 0.002699 -0.000608 -0.001599
v 0.002792 0.001147 0.001757
v 0.002780 0.001041 -0.001651
v 0.001968 0.002578 0.001715
v 0.001956 0.002472 -0.001692
v 0.000501 0.003337 0.001697
v 0.000501 0.003337 0.001697
v 0.000489 0.003231 -0.001711
v 0.000489 0.003231 -0.001711
v -0.001144 0.003183 0.001707
v -0.002444 0.002164 0.001743
v -0.002456 0.002058 -0.001664
v -0.001156 0.003077 -0.001700
v -0.002987 0.000604 0.001794
v -0.002998 0.000499 -0.001614
v -0.002600 -0.001001 0.001842
v -0.002611 -0.001107 -0.001565
v -0.001406 -0.002142 0.001874
v -0.001417 -0.002248 -0.001534
vt 1.000000 0.500000
vt 1.000000 1.000000
vt 0.909091 1.000000
vt 0.909091 0.500000
vt 0.818182 1.000000
vt 0.818182 0.500000
vt 0.727273 1.000000
vt 0.727273 0.500000
vt 0.636364 1.000000
vt 0.636364 0.500000
vt 0.545454 1.000000
vt 0.545454 0.500000
vt 0.454545 1.000000
vt 0.454545 0.500000
vt 0.363636 1.000000
vt 0.363636 0.500000
vt 0.272727 1.000000
vt 0.272727 0.500000
vt 0.181818 1.000000
vt 0.181818 0.500000
vt 0.379753 0.451901
vt 0.250000 0.490000
vt 0.120247 0.451901
vt 0.031687 0.349700
vt 0.012444 0.215845
vt 0.068623 0.092834
vt 0.182383 0.019722
vt 0.317617 0.019722
vt 0.431377 0.092834
vt 0.487556 0.215844
vt 0.468313 0.349699
vt 0.090909 1.000000
vt 0.090909 0.500000
vt 0.750000 0.490000
vt 0.879753 0.451901
vt 0.968313 0.349699
vt 0.987556 0.215844
vt 0.931377 0.092833
vt 0.817617 0.019722
vt 0.682383 0.019722
vt 0.568623 0.092833
vt 0.512444 0.215844
vt 0.531687 0.349699
vt 0.620247 0.451901
vt 1.000000 0.500000
vt 1.000000 1.000000
vt 0.909091 1.000000
vt 0.909091 0.500000
vt 0.818182 1.000000
vt 0.818182 0.500000
vt 0.727273 1.000000
vt 0.727273 0.500000
vt 0.636364 1.000000
vt 0.636364 0.500000
vt 0.545454 1.000000
vt 0.545454 0.500000
vt 0.454545 0.500000
vt 0.454545 1.000000
vt 0.363636 1.000000
vt 0.363636 0.500000
vt 0.272727 1.000000
vt 0.272727 0.500000
vt 0.181818 1.000000
vt 0.181818 0.500000
vt 0.379753 0.451901
vt 0.250000 0.490000
vt 0.120247 0.451901
vt 0.031687 0.349700
vt 0.012444 0.215845
vt 0.068623 0.092834
vt 0.182383 0.019722
vt 0.317617 0.019722
vt 0.431377 0.092834
vt 0.487556 0.215844
vt 0.468313 0.349699
vt 0.090909 1.000000
vt 0.090909 0.500000
vt -0.000000 1.000000
vt -0.000000 0.500000
vt 0.750000 0.490000
vt 0.879753 0.451901
vt 0.968313 0.349699
vt 0.987556 0.215844
vt 0.931377 0.092833
vt 0.817617 0.019722
vt 0.682383 0.019722
vt 0.568623 0.092833
vt 0.512444 0.215844
vt 0.531687 0.349699
vt 0.620247 0.451901
vt 0.000000 0.000000
vt 0.000000 0.000000
vt 0.000000 0.000000
vt 0.000000 0.000000
vt 0.000000 0.000000
vt 0.000000 0.000000
vt 0.000000 0.000000
vt 0.000000 0.000000
vt 0.000000 0.000000
vt 0.000000 0.000000
vt 0.000000 0.000000
vt 0.000000 0.000000
vt 0.000000 0.000000
vt 0.000000 0.000000
vt 0.000000 0.000000
vt 0.000000 0.000000
vn 0.4931 -0.8699 0.0096
vn 0.7181 -0.6959 0.0007
vn 0.9802 -0.1974 -0.0164
vn 0.9311 0.3638 -0.0284
vn 0.5863 0.8095 -0.0313
vn 0.0554 0.9982 -0.0243
vn -0.4930 0.8700 -0.0096
vn -0.8850 0.4655 0.0082
vn -0.9960 -0.0867 0.0234
vn -0.7907 -0.6114 0.0311
vn -0.0214 -0.0231 -0.9995
vn -0.0187 0.0057 -0.9998
vn -0.0188 0.0046 -0.9998
vn -0.5863 -0.8095 0.0313
vn 0.0187 -0.0057 0.9998
vn 0.0214 0.0232 0.9995
vn 0.0188 -0.0049 0.9998
vn 0.0936 -0.9951 0.0306
vn 0.6170 -0.7867 0.0223
vn 0.9445 -0.3284 0.0069
vn 0.9722 0.2341 -0.0106
vn 0.6911 0.7223 -0.0248
vn 0.4595 0.8877 -0.0291
vn -0.9013 0.4331 -0.0052
vn -0.8900 0.4559 -0.0062
vn -0.8137 0.5811 -0.0152
vn -0.9988 0.0491 0.0019
vn -0.8668 -0.4984 0.0185
vn -0.0035 -0.0310 -0.9995
vn -0.0074 -0.0010 -1.0000
vn -0.0077 0.0015 -1.0000
vn -0.4595 -0.8877 0.0292
vn 0.0035 0.0310 0.9995
vn 0.0077 -0.0019 1.0000
vn 0.0074 0.0010 1.0000
vn 0.9998 -0.0169 -0.0120
vn -0.9998 0.0151 0.0121
g Hinge_H0G0_Tailrotor_Hinge_G0H0_Kunstoff_Schwarz
usemtl Kunstoff_Schwarz
s 1
f 45/1/1 49/2/1 48/3/2 47/4/2
f 47/4/2 48/3/2 52/5/3 51/6/3
f 51/6/3 52/5/3 54/7/4 53/8/4
f 53/8/4 54/7/4 56/9/5 55/10/5
f 55/10/5 56/9/5 58/11/6 57/12/6
f 57/12/6 58/11/6 60/13/7 59/14/7
f 59/14/7 60/13/7 62/15/8 61/16/8
f 61/16/8 62/15/8 64/17/9 63/18/9
f 63/18/9 64/17/9 66/19/10 65/20/10
f 3/21/11 50/22/12 69/23/13 20/24/11 18/25/11 16/26/11 14/27/11 12/28/11 10/29/11 8/30/11 6/31/11
f 65/20/10 66/19/10 70/32/14 67/33/14
f 46/34/15 2/35/16 5/36/16 7/37/16 9/38/16 11/39/16 13/40/16 15/41/16 17/42/16 19/43/16 68/44/17
f 71/45/18 74/46/18 73/47/19 72/48/19
f 72/48/19 73/47/19 76/49/20 75/50/20
f 75/50/20 76/49/20 78/51/21 77/52/21
f 77/52/21 78/51/21 80/53/22 79/54/22
f 79/54/22 80/53/22 83/55/23 81/56/23
f 35/57/24 36/58/25 87/59/26 86/60/26
f 86/60/26 87/59/26 90/61/27 89/62/27
f 89/62/27 90/61/27 92/63/28 91/64/28
f 25/65/29 26/66/29 94/67/29 42/68/29 40/69/29 38/70/29 88/71/30 84/72/31 32/73/29 30/74/29 28/75/29
f 91/64/28 92/63/28 44/76/32 93/77/32
f 93/77/32 44/76/32 74/78/18 71/79/18
f 23/80/33 24/81/33 27/82/33 29/83/33 31/84/33 82/85/34 85/86/35 37/87/33 39/88/33 41/89/33 43/90/33
f 1/91/36 33/92/36 34/93/36 4/94/36
f 85/95/35 82/96/34 46/97/15 68/98/17
f 50/99/12 84/100/31 88/101/30 69/102/13
f 36/103/25 35/104/24 21/105/37 22/106/37
