# Blender v2.82 (sub 1) OBJ File: 'Skybox.blend'
# www.blender.org
mtllib collision_landing_object.mtl
g collision_landing_object
v 251.755508 -0.037471 795.446777
v 777.897400 -0.037276 -278.883728
v -296.433136 -0.037276 -805.025635
v -27.903149 0.502859 -14.854043
v -25.174601 0.496137 -12.806170
v -23.983976 0.513948 -14.438207
v -35.080185 0.371619 -18.791742
v -31.589542 0.463690 -15.850607
v -30.633801 0.487596 -17.796186
v -16.243889 2.518361 -13.639384
v -10.600678 2.438085 -10.707149
v -9.627001 3.273696 -12.887895
v -8.107608 2.510436 -14.856172
v -10.694996 2.448758 -10.850757
v -8.050016 2.400640 -9.368971
v -822.575012 -0.037471 269.304932
v -26.559238 0.523597 -16.548040
v -33.955349 0.381154 -20.720234
v -14.887287 3.380344 -16.276299
v -5.441021 2.577651 -13.459021
vt 0.000000 1.000000
vt 0.000000 0.000000
vt 1.000000 0.000000
vt 1.000000 1.000000
vt 0.000000 0.000000
vt 1.000000 0.000000
vt 1.000000 1.000000
vt 0.000000 1.000000
vt 0.000000 0.000000
vt 1.000000 0.000000
vt 1.000000 1.000000
vt 0.000000 1.000000
vt 0.000000 0.000000
vt 1.000000 0.000000
vt 1.000000 1.000000
vt 0.000000 1.000000
vt 0.000000 1.000000
vt 0.000000 0.000000
vt 1.000000 0.000000
vt 1.000000 1.000000
vn -0.0000 1.0000 0.0000
vn -0.0038 1.0000 0.0089
vn -0.0037 1.0000 0.0082
vn -0.0037 1.0000 0.0086
vn -0.0038 1.0000 0.0092
vn -0.0249 0.9997 -0.0056
vn -0.0260 0.9997 -0.0005
vn -0.0254 0.9997 -0.0040
vn -0.0240 0.9997 -0.0091
vn -0.1384 0.9565 0.2569
vn -0.1416 0.9439 0.2984
vn -0.1404 0.9486 0.2838
vn -0.1372 0.9602 0.2433
vn 0.0070 0.9998 0.0199
vn -0.0359 0.9991 0.0204
usemtl Default_OBJ.001
s 1
f 1/1/1 2/2/1 3/3/1
f 1/1/1 3/3/1 16/4/1
s 2
f 4/5/2 5/6/3 6/7/4
f 4/5/2 6/7/4 17/8/5
s 3
f 7/9/6 8/10/7 9/11/8
f 7/9/6 9/11/8 18/12/9
s 4
f 10/13/10 11/14/11 12/15/12
f 10/13/10 12/15/12 19/16/13
s 5
f 13/17/14 14/18/14 15/19/14
s 6
f 13/17/15 15/19/15 20/20/15
