# Blender v2.82 (sub 6) OBJ File: 'Skybox.blend'
# www.blender.org
g collision_landing_object.001
v 598.124451 -0.000194 598.124451
v 598.124451 0.000194 -598.124451
v -598.124451 0.000194 -598.124451
v -9.470000 1.050001 -6.590000
v -6.410000 1.000001 -5.650000
v -5.940000 1.050001 -7.870000
v -17.540001 0.990001 -7.010000
v -13.070000 0.940001 -5.950000
v -13.020000 1.050001 -8.260000
v 1.550000 3.090002 -10.589998
v 7.970000 3.130002 -10.489998
v 7.922489 4.093527 -13.461730
v 8.100000 2.540002 -15.290000
v 8.010000 3.150002 -10.539999
v 10.900000 3.150002 -10.279998
v -598.124451 -0.000194 598.124451
v -9.080000 1.080001 -8.640000
v -17.590000 0.990002 -9.720000
v 1.635143 4.181733 -13.780863
v 10.900000 2.540002 -15.230000
vt 0.000000 1.000000
vt 0.000000 0.000000
vt 1.000000 0.000000
vt 0.000000 0.000000
vt 1.000000 0.000000
vt 1.000000 1.000000
vt 0.000000 0.000000
vt 1.000000 0.000000
vt 1.000000 1.000000
vt 0.000000 0.000000
vt 1.000000 0.000000
vt 1.000000 1.000000
vt 0.000000 1.000000
vt 0.000000 0.000000
vt 1.000000 0.000000
vt 1.000000 1.000000
vt 0.000000 1.000000
vt 0.000000 1.000000
vt 0.000000 1.000000
vt 1.000000 1.000000
vn 0.0000 1.0000 0.0000
vn 0.0069 0.9998 0.0190
vn 0.0088 0.9997 0.0244
vn 0.0077 0.9997 0.0212
vn -0.0093 0.9999 0.0144
vn -0.0001 0.9989 0.0476
vn -0.0046 0.9995 0.0317
vn -0.0054 0.9477 0.3192
vn -0.0107 0.9511 0.3086
vn -0.0081 0.9495 0.3136
vn 0.0114 0.9918 -0.1272
vn 0.0057 0.9999 0.0157
vn -0.0132 0.9999 0.0002
vn -0.0032 0.9462 0.3236
vn 0.0026 0.9925 -0.1223
s 1
f 1/1/1 2/2/1 3/3/1
f 4/4/2 5/5/3 6/6/4
f 7/7/5 8/8/6 9/9/7
f 10/10/8 11/11/9 12/12/10
f 13/13/11 14/14/11 15/15/11
f 1/1/1 3/3/1 16/16/1
f 4/4/2 6/6/4 17/17/12
f 7/7/5 9/9/7 18/18/13
f 10/10/8 12/12/10 19/19/14
f 13/13/15 15/15/15 20/20/15
