# Blender v2.90 (sub 0) OBJ File: 'Holzer-Kreuz_Parklpat_Winter.blend'
# www.blender.org
v 40.820000 8.000000 26.910000
v 56.930000 2.320000 82.209999
v 26.330000 -5.240000 127.129997
v -15.620000 -7.720000 71.629997
v 13.150000 8.890000 -134.149994
v -40.349998 -5.700000 -96.449997
v 44.480000 13.890000 -189.649994
v 30.990000 12.430000 -144.820007
v 61.400002 12.800000 24.309999
v 3.590000 4.780000 -74.839996
v -9.610000 -0.280000 -33.290001
v -62.560001 -12.740000 -45.619999
v -46.340000 -9.550000 -32.939999
v -138.660004 -34.779999 136.259995
v 156.860001 47.320000 -147.300003
v 156.339996 45.040001 -199.389999
v 53.220001 20.750000 -170.869995
v 1.750000 10.700000 -200.960007
v -249.735291 -64.088379 179.290421
v 22.350000 -1.360000 44.630001
v -57.389999 -11.990000 -20.549999
v 83.949997 27.790001 -162.509995
v 12.040000 -3.520000 89.050003
v -42.549999 -15.510000 118.559998
v -81.129997 -22.170000 139.119995
v -32.529999 -13.790000 131.919998
v 5.406387 -1.235635 40.356472
v 1.660000 -1.750000 41.230000
v -8.880000 -2.980000 69.290001
v -10.390000 -2.400000 56.930000
v -33.860001 -5.970000 -31.209999
v -10.610000 -5.400000 49.820000
v -16.270000 -6.650000 59.630001
v -1.040000 0.030000 -2.450000
v -1.250000 0.650000 -13.750000
v -15.830000 -3.650000 7.790000
v -13.290000 -4.220000 19.780001
v -7.720000 -0.380000 -32.790001
v -4.650000 1.490000 -51.139999
v -38.369999 -6.860000 -25.780001
v -68.339996 -15.450000 -25.010000
v -214.249176 0.614996 -271.539276
v -181.739624 2.286651 -306.471375
v -46.250000 -9.020000 -74.019997
v -253.323425 -8.342725 -212.309448
v -148.411850 0.592475 -313.092651
v -284.910004 -41.060001 -33.419998
v 31.156502 12.564251 -188.872864
v 22.250000 8.610000 -132.960007
v -85.913467 6.222815 -309.602142
v 25.740000 10.580000 -128.949997
v 57.849998 15.280000 -26.240000
v 62.880001 18.139999 -43.049999
v 93.040001 28.070000 -101.180000
v 80.160004 23.030001 -79.879997
v 58.840000 13.220000 -0.920000
v 0.770000 3.100000 -50.869999
v 60.220001 12.920000 9.320000
v 50.919998 10.150000 18.430000
v -13.410000 -0.890000 -55.419998
v -53.820000 -10.270000 -61.700001
v -193.809998 -62.410000 206.380005
v 4.830000 -0.720000 24.639999
v -5.660000 -0.520000 -7.560000
v -5.290000 -0.460000 -14.110000
v -2.820000 -0.350000 -7.450000
v 8.030000 7.010000 -112.029999
v 13.200000 6.150000 -103.070000
v 126.279999 38.980000 -150.500000
v -29.459999 -18.650000 157.440002
v -115.150002 -29.340000 59.610001
v -180.369995 -44.939999 134.940002
v 14.600000 -3.590000 88.660004
v 4.050000 -0.710000 24.170000
v 2.740000 -0.190000 8.740000
v 5.640000 3.040000 -46.200001
v 8.400000 4.320000 -70.440002
v 2.530000 -0.090000 -0.240000
v 2.950000 0.150000 -1.270000
v 2.390000 -0.370000 7.620000
v 2.600000 -0.120000 2.740000
v 3.910000 0.250000 -1.350000
v 25.670000 4.840000 2.380000
v 4.530000 0.810000 -9.990000
v 21.730000 5.650000 -11.650000
v 4.680000 1.550000 -20.750000
v 24.610001 7.020000 -31.049999
v 48.700001 15.180000 -108.360001
v 3.040000 0.820000 -10.030000
v 2.540000 0.300000 -10.120000
v 3.350000 1.410000 -19.660000
v 2.740000 1.020000 -19.750000
v 5.030000 2.640000 -46.279999
v 3.480000 -0.990000 23.870001
v 0.190000 -0.730000 19.480000
v -0.790000 -0.150000 3.250000
v -0.900000 -0.070000 0.690000
v -6.020000 -1.970000 47.810001
v -7.520000 -0.570000 -15.050000
v -15.940000 -1.920000 -31.580000
v -24.780001 -3.820000 -42.740002
v -30.250000 -5.200000 -27.430000
v -0.860000 1.630000 -32.820000
v -3.990000 -0.560000 -1.870000
v -0.440000 -0.410000 10.960000
v 147.190002 15.250000 72.430000
v 103.059998 13.990000 61.189999
v 350.309998 83.889999 -9.910000
v 62.880001 18.139999 -43.049999
v 80.160004 23.030001 -79.879997
v 259.200012 71.739998 -133.729996
v 58.840000 13.220000 -0.920000
v 57.849998 15.280000 -26.240000
v 350.309998 83.889999 -9.910000
v 60.220001 12.920000 9.320000
v 58.840000 13.220000 -0.920000
v 350.309998 83.889999 -9.910000
v 61.400002 12.800000 24.309999
v 60.220001 12.920000 9.320000
v 350.309998 83.889999 -9.910000
v 103.059998 13.990000 61.189999
v 61.400002 12.800000 24.309999
v 350.309998 83.889999 -9.910000
v 156.860001 47.320000 -147.300003
v 156.339996 45.040001 -199.389999
v 248.860001 73.129997 -170.399994
v 350.309998 83.889999 -9.910000
v 327.609985 74.250000 26.650000
v 147.190002 15.250000 72.430000
v 93.040001 28.070000 -101.180000
v 156.860001 47.320000 -147.300003
v 259.200012 71.739998 -133.729996
v 259.200012 71.739998 -133.729996
v 248.860001 73.129997 -170.399994
v 57.849998 15.280000 -26.240000
v 259.200012 71.739998 -133.729996
v 350.309998 83.889999 -9.910000
v 80.160004 23.030001 -79.879997
v 93.040001 28.070000 -101.180000
v 259.200012 71.739998 -133.729996
v 57.849998 15.280000 -26.240000
v 62.880001 18.139999 -43.049999
v 259.200012 71.739998 -133.729996
vn -0.1257 0.9888 0.0808
vn -0.1355 0.9862 0.0954
vn -0.4041 0.7966 0.4496
vn -0.6429 0.7152 -0.2743
vn -0.5478 0.8301 0.1037
vn -0.1836 0.9782 0.0972
vn -0.2815 0.9592 -0.0282
vn -0.2464 0.9688 0.0253
vn -0.2453 0.9690 0.0288
vn -0.2712 0.9623 0.0201
vn -0.2353 0.9718 0.0136
vn -0.2793 0.9365 -0.2121
vn -0.1318 0.9683 0.2120
vn -0.2263 0.9740 0.0115
vn -0.5500 0.8284 0.1061
vn -0.1936 0.9785 0.0715
vn -0.2785 0.9597 0.0364
vn -0.2861 0.9576 0.0335
vn -0.2015 0.9792 0.0251
vn -0.4511 0.8913 -0.0453
vn -0.4385 0.8968 -0.0590
vn -0.2599 0.9652 0.0282
vn -0.2304 0.9727 -0.0278
vn -0.1249 0.9718 0.2001
vn -0.2742 0.9601 -0.0555
vn -0.2786 0.9586 -0.0597
vn -0.1659 0.9436 0.2866
vn -0.2193 0.9542 0.2035
vn -0.2381 0.9528 0.1882
vn -0.2982 0.9545 -0.0083
vn -0.1822 0.9739 0.1356
vn -0.2669 0.9616 -0.0641
vn -0.2712 0.9619 -0.0342
vn -0.1223 0.9876 0.0987
vn -0.2648 0.9639 -0.0296
vn -0.1206 0.9881 0.0955
vn -0.2590 0.9651 -0.0397
vn -0.2052 0.9657 0.1590
vn -0.2470 0.9685 -0.0318
vn -0.1717 0.9716 0.1626
vn -0.2169 0.9757 0.0320
vn -0.1291 0.9912 0.0299
vn 0.0544 0.9977 0.0394
vn 0.0203 0.9970 0.0750
vn -0.0159 0.9986 0.0510
vn -0.0004 0.9985 0.0548
vn 0.0135 0.9960 0.0878
vn 0.0192 0.9960 0.0878
vn 0.0210 0.9970 0.0739
vn -0.0957 0.9939 0.0550
vn -0.1213 0.9906 0.0630
vn 0.0286 0.9989 0.0362
vn 0.0285 0.9989 0.0361
vn 0.0320 0.9989 0.0351
vn 0.0181 0.9988 0.0456
vn 0.0166 0.9993 0.0329
vn 0.0143 0.9994 0.0312
vn 0.0141 0.9994 0.0306
vn 0.0337 0.9985 0.0422
vn 0.0323 0.9989 0.0330
vn 0.0199 0.9982 0.0566
vn 0.0062 0.9989 0.0461
vn -0.0115 0.9992 0.0395
vn -0.0397 0.9976 0.0575
vn 0.0184 0.9964 0.0828
vn 0.0286 0.9969 0.0733
vn 0.0284 0.9969 0.0732
vn 0.0367 0.9973 0.0642
vn 0.0549 0.9964 0.0640
vn -0.6508 0.7034 -0.2859
vn -0.6024 0.4020 -0.6896
vn -0.1206 0.9880 0.0961
vn -0.1698 0.9855 0.0005
vn -0.2314 0.9728 -0.0095
vn -0.2339 0.9693 0.0755
vn -0.2282 0.9723 0.0502
vn -0.1804 0.9799 0.0848
vn -0.2222 0.9742 0.0392
vn -0.2806 0.9585 0.0507
vn -0.2327 0.9671 0.1022
vn -0.1162 0.9805 0.1588
vn -0.2153 0.9754 0.0482
vn -0.2235 0.9702 0.0935
vn -0.0747 0.9909 0.1116
vn -0.0456 0.9963 0.0731
vn -0.0937 0.9927 0.0755
vn 0.0005 0.9988 0.0483
vn -0.0673 0.9921 0.1056
vn -0.1159 0.9865 0.1155
vn 0.0514 0.9987 0.0034
vn -0.1343 0.9906 0.0265
vn -0.2324 0.9673 -0.1014
vn -0.1610 0.9829 0.0894
vn -0.1084 0.9879 0.1114
vn -0.2577 0.9646 0.0561
vn -0.2867 0.9566 0.0520
vn -0.2683 0.9623 0.0440
vn -0.2808 0.9589 0.0406
vn -0.2272 0.9727 0.0469
vn -0.2710 0.9589 0.0847
vn -0.3610 0.9308 0.0578
vn -0.1870 0.9810 0.0527
vn -0.2098 0.9746 -0.0779
vn -0.1374 0.9699 0.2012
vn -0.0052 0.9988 0.0497
vn -0.1997 0.9783 0.0562
vn -0.2445 0.9677 0.0619
vn -0.2491 0.9669 0.0547
vn -0.2489 0.9667 0.0602
vn -0.2397 0.9699 0.0429
vn -0.2436 0.9695 0.0279
vn -0.2151 0.9761 0.0298
vn -0.2001 0.9798 0.0010
vn -0.2209 0.9752 0.0090
vn -0.2016 0.9794 -0.0069
vn -0.2185 0.9758 0.0099
vn -0.1883 0.9813 0.0406
vn 0.0247 0.9941 0.1054
vn -0.0540 0.9985 0.0113
vn 0.0502 0.9987 0.0101
vn -0.0519 0.9986 0.0062
vn -0.0600 0.9982 0.0058
vn -0.0607 0.9978 0.0248
vn -0.1969 0.9804 -0.0044
vn -0.2381 0.9693 0.0607
vn -0.2765 0.9585 0.0692
vn -0.2434 0.9699 0.0058
vn -0.2015 0.9792 -0.0245
vn -0.2404 0.9699 0.0382
vn -0.4580 0.8822 -0.1091
vn -0.0009 0.9995 0.0328
vn -0.2662 0.9633 0.0337
vn -0.3618 0.9322 -0.0110
vn -0.2392 0.9697 0.0501
vn -0.2539 0.9649 0.0676
vn -0.2454 0.9689 0.0320
vn -0.2523 0.9636 0.0885
vn -0.2802 0.9599 -0.0040
vn -0.2823 0.9591 0.0219
vn -0.2867 0.9566 0.0530
vn -0.2598 0.9654 0.0209
vn -0.2234 0.9708 0.0877
vn -0.2318 0.9652 0.1208
vn -0.2388 0.9692 0.0606
vn -0.2439 0.9696 0.0185
vn -0.2068 0.9784 0.0017
vn -0.2374 0.9700 0.0526
vn -0.2367 0.9714 0.0210
vn -0.2405 0.9682 0.0689
vn -0.2683 0.9621 0.0494
vn -0.5479 0.8251 -0.1380
vn -0.1983 0.9784 0.0587
vn -0.2094 0.9777 0.0184
vn -0.2140 0.9757 0.0479
vn -0.2572 0.9579 0.1275
vn -0.2682 0.9629 0.0282
vn -0.2335 0.9703 0.0635
vn -0.2414 0.9693 0.0476
vn -0.2291 0.9729 0.0313
vn -0.2390 0.9707 0.0241
vn -0.2988 0.9366 0.1832
vn -0.2429 0.9391 0.2429
vn -0.2178 0.9752 0.0400
vn -0.0079 0.9994 0.0343
vn -0.4691 0.8804 0.0695
vn -0.6279 0.7749 0.0717
vn -0.5466 0.8372 -0.0180
vn -0.4294 0.9024 0.0352
vn -0.7240 0.6883 0.0452
vn -0.4591 0.8881 0.0197
vn -0.5261 0.8502 0.0209
vn -0.5119 0.8587 0.0220
vn -0.0986 0.9934 0.0583
vn -0.0589 0.9967 0.0561
vn -0.2235 0.9746 0.0166
vn -0.0564 0.9967 0.0592
vn 0.0049 0.9976 0.0687
vn 0.0046 0.9971 0.0763
vn -0.0987 0.9935 0.0573
vn -0.7224 0.6913 0.0191
vn -0.5433 0.8380 0.0514
vn -0.5392 0.8422 0.0049
vn -0.5487 0.8360 0.0040
vn -0.1328 0.8975 0.4206
vn -0.2790 0.9595 -0.0392
vn -0.2609 0.9653 0.0058
vn -0.2322 0.9687 0.0879
vn -0.2335 0.9705 0.0599
vn -0.2359 0.9714 0.0263
vn -0.2106 0.9554 0.2070
vn -0.1034 0.9484 0.2996
vn -0.1334 0.9882 0.0754
vn -0.2943 0.9532 0.0686
vn -0.2440 0.9640 0.1053
vn -0.2404 0.9680 0.0713
vn -0.2317 0.9699 0.0753
vn -0.2376 0.9676 0.0853
vn -0.2190 0.9706 0.0996
s off
f 2//1 73//1 3//1
f 26//2 3//2 23//2
f 4//3 23//3 29//3
f 33//4 30//4 98//4
f 29//5 33//5 4//5
f 33//6 72//6 4//6
f 48//7 6//7 5//7
f 5//8 6//8 67//8
f 10//9 67//9 6//9
f 11//10 39//10 60//10
f 11//11 60//11 101//11
f 17//12 16//12 7//12
f 19//13 62//13 72//13
f 16//14 17//14 22//14
f 33//15 29//15 30//15
f 4//16 72//16 23//16
f 10//17 60//17 39//17
f 57//18 10//18 39//18
f 26//19 23//19 24//19
f 51//20 8//20 49//20
f 49//21 68//21 51//21
f 9//22 58//22 59//22
f 1//23 9//23 59//23
f 70//24 3//24 26//24
f 13//25 21//25 40//25
f 13//26 41//26 21//26
f 25//27 62//27 70//27
f 14//28 62//28 25//28
f 72//29 62//29 14//29
f 41//30 71//30 21//30
f 19//31 72//31 47//31
f 31//32 13//32 40//32
f 31//33 101//33 13//33
f 72//34 71//34 47//34
f 36//35 71//35 72//35
f 71//36 41//36 47//36
f 125//37 69//37 131//37
f 2//38 122//38 1//38
f 125//39 22//39 69//39
f 2//40 121//40 122//40
f 13//41 61//41 12//41
f 94//42 28//42 27//42
f 35//43 78//43 90//43
f 35//44 90//44 92//44
f 92//45 103//45 35//45
f 78//46 35//46 34//46
f 5//47 67//47 68//47
f 68//48 49//48 5//48
f 49//49 48//49 5//49
f 49//50 7//50 48//50
f 28//51 23//51 27//51
f 105//52 94//52 80//52
f 78//53 105//53 80//53
f 95//54 94//54 105//54
f 95//55 28//55 94//55
f 105//56 78//56 96//56
f 97//57 78//57 34//57
f 96//58 78//58 97//58
f 23//59 73//59 27//59
f 23//60 3//60 73//60
f 98//61 30//61 28//61
f 29//62 28//62 30//62
f 29//63 23//63 28//63
f 92//64 93//64 103//64
f 57//65 103//65 93//65
f 93//66 77//66 57//66
f 10//67 57//67 77//67
f 77//68 67//68 10//68
f 77//69 68//69 67//69
f 33//70 98//70 32//70
f 32//71 98//71 28//71
f 47//72 41//72 12//72
f 25//73 26//73 24//73
f 32//74 72//74 33//74
f 64//75 21//75 104//75
f 99//76 21//76 64//76
f 36//77 72//77 37//77
f 104//78 21//78 36//78
f 103//79 39//79 38//79
f 40//80 21//80 99//80
f 47//81 12//81 45//81
f 104//82 36//82 105//82
f 36//83 37//83 105//83
f 61//84 45//84 12//84
f 44//85 45//85 61//85
f 46//86 6//86 50//86
f 44//87 43//87 42//87
f 44//88 42//88 45//88
f 6//89 43//89 44//89
f 6//90 46//90 43//90
f 73//91 2//91 20//91
f 14//92 23//92 72//92
f 50//93 6//93 18//93
f 18//94 6//94 48//94
f 10//95 6//95 60//95
f 57//96 39//96 103//96
f 35//97 103//97 65//97
f 65//98 103//98 38//98
f 71//99 36//99 21//99
f 66//100 35//100 65//100
f 35//101 66//101 34//101
f 23//102 14//102 24//102
f 24//103 14//103 25//103
f 25//104 70//104 26//104
f 73//105 20//105 27//105
f 37//106 72//106 32//106
f 95//107 32//107 28//107
f 105//108 37//108 95//108
f 37//109 32//109 95//109
f 99//110 11//110 100//110
f 11//111 101//111 100//111
f 100//112 102//112 99//112
f 99//113 102//113 40//113
f 100//114 101//114 102//114
f 102//115 31//115 40//115
f 102//116 101//116 31//116
f 104//117 105//117 34//117
f 39//118 11//118 38//118
f 65//119 38//119 99//119
f 99//120 38//120 11//120
f 64//121 65//121 99//121
f 65//122 64//122 66//122
f 104//123 66//123 64//123
f 34//124 66//124 104//124
f 12//125 41//125 13//125
f 60//126 6//126 44//126
f 101//127 60//127 44//127
f 101//128 44//128 61//128
f 13//129 101//129 61//129
f 7//130 8//130 17//130
f 63//131 27//131 20//131
f 54//132 15//132 69//132
f 51//133 17//133 8//133
f 68//134 88//134 51//134
f 17//135 51//135 88//135
f 85//136 52//136 87//136
f 53//137 87//137 52//137
f 55//138 87//138 53//138
f 69//139 88//139 54//139
f 54//140 88//140 55//140
f 87//141 55//141 88//141
f 52//142 85//142 56//142
f 83//143 56//143 85//143
f 83//144 58//144 56//144
f 77//145 88//145 68//145
f 59//146 83//146 1//146
f 58//147 83//147 59//147
f 63//148 1//148 83//148
f 17//149 88//149 22//149
f 88//150 69//150 22//150
f 7//151 49//151 8//151
f 83//152 75//152 63//152
f 75//153 83//153 82//153
f 83//154 84//154 82//154
f 83//155 85//155 84//155
f 87//156 84//156 85//156
f 84//157 87//157 86//157
f 86//158 87//158 76//158
f 87//159 88//159 76//159
f 76//160 88//160 77//160
f 20//161 2//161 1//161
f 1//162 63//162 20//162
f 63//163 94//163 27//163
f 75//164 74//164 63//164
f 75//165 94//165 74//165
f 80//166 94//166 75//166
f 76//167 77//167 93//167
f 79//168 90//168 78//168
f 79//169 89//169 90//169
f 81//170 79//170 78//170
f 78//171 80//171 81//171
f 75//172 81//172 80//172
f 82//173 79//173 81//173
f 86//174 76//174 91//174
f 75//175 82//175 81//175
f 89//176 86//176 91//176
f 84//177 86//177 89//177
f 89//178 79//178 84//178
f 82//179 84//179 79//179
f 91//180 90//180 89//180
f 91//181 92//181 90//181
f 91//182 93//182 92//182
f 93//183 91//183 76//183
f 106//184 108//184 107//184
f 124//185 126//185 125//185
f 109//186 111//186 110//186
f 112//187 114//187 113//187
f 115//188 117//188 116//188
f 118//189 120//189 119//189
f 121//190 123//190 122//190
f 2//191 129//191 121//191
f 2//192 3//192 129//192
f 127//193 129//193 128//193
f 133//194 134//194 15//194
f 130//195 132//195 131//195
f 135//196 137//196 136//196
f 138//197 140//197 139//197
f 141//198 143//198 142//198
