# Blender v2.90 (sub 0) OBJ File: 'Ahornkopf.blend'
# www.blender.org
v 51.880001 -0.790000 -28.430000
v 82.000000 -5.780000 -13.250000
v 51.720001 -4.210000 7.600000
v 143.830002 -14.470000 9.810000
v 131.360001 -32.369999 91.440002
v 51.410000 -7.580000 24.129999
v 119.599998 -9.490000 -19.950001
v 73.370003 -9.420000 22.250000
v 29.400000 0.950000 -24.340000
v 45.189999 0.100000 -31.309999
v 38.560001 0.440000 -37.139999
v 31.290001 1.040000 -45.230000
v 27.440001 1.480000 -53.740002
v 0.360000 5.360000 -85.550003
v -18.910000 5.350000 -38.220001
v -31.080000 5.690000 -38.290001
v -83.360001 7.790000 -53.290001
v 130.899994 -42.130001 124.129997
v 112.099998 -55.669998 174.669998
v 80.699997 -44.090000 139.940002
v 70.580002 -35.180000 113.260002
v 4.850000 -19.000000 80.269997
v 9.320000 -29.080000 111.879997
v 41.099998 -26.290001 93.279999
v 16.320000 -18.270000 74.669998
v 1.900000 1.660000 -12.660000
v 15.870000 0.300000 -12.100000
v 31.240000 -1.280000 -6.290000
v -13.070000 2.110000 -13.100000
v 51.320000 -1.600000 -16.110001
v 51.130001 -2.810000 -5.220000
v 41.740002 -14.330000 51.430000
v -101.559998 2.080000 -6.280000
v -65.360001 -0.460000 -5.240000
v -63.970001 -12.880000 62.380001
v 84.540001 -21.340000 71.650002
v 29.559999 -16.660000 64.650002
v 138.589996 -24.889999 68.160004
v 101.959999 -19.190001 55.220001
v 153.789993 -22.080000 44.619999
v 31.879999 -51.049999 186.289993
v 7.410000 -39.869999 148.330002
v -40.000000 -46.549999 200.919998
v -31.559999 -52.919998 234.059998
v -81.849998 4.850000 -34.570000
v 3.960000 3.780000 -36.029999
v -61.930000 5.310000 -35.250000
v 12.470000 2.720000 -32.349998
v 25.180000 0.700000 -18.230000
v 22.010000 1.970000 -28.299999
v -135.080002 4.260000 -23.790001
v -109.199997 -0.820000 11.690000
v -71.440002 -3.460000 14.210000
v -94.910004 -8.220000 43.549999
v -98.949997 -3.620000 24.490000
v -116.220001 -1.560000 20.120001
v 20.580000 -3.750000 13.400000
v 1.540000 -4.200000 19.190001
v 36.830002 -6.830000 23.940001
v -4.350000 1.940000 -12.840000
v -10.320000 3.440000 -25.049999
v 4.700000 2.480000 -21.660000
v -9.220000 4.730000 -37.630001
v -30.080000 4.420000 -28.809999
v -52.790001 2.350000 -17.430000
v 0.000000 0.000000 0.000000
v -16.799999 -0.050000 -1.300000
v -19.000000 -3.440000 14.120000
v -40.939999 -2.740000 8.430000
v -39.400002 -6.350000 27.430000
v -149.910004 -0.210000 3.720000
v -150.389999 -0.720000 63.709999
v -144.199997 -3.030000 49.459999
v -104.550003 -9.760000 66.580002
v -127.370003 -3.530000 34.369999
v -174.729996 0.770000 39.180000
v -165.440002 -0.480000 22.540001
v -153.520004 -0.610000 12.350000
v -3.490000 -10.050000 42.619999
v -23.930000 -23.360001 103.809998
v -38.070000 -17.379999 78.879997
v -59.049999 -28.420000 132.929993
v -43.169998 -26.250000 119.330002
v -51.000000 -37.189999 164.770004
v -82.099998 -13.360000 76.449997
v -94.110001 -12.440000 85.970001
v -117.230003 -8.170000 76.160004
v -71.709999 -18.250000 96.660004
vn 0.1442 0.9802 0.1356
vn 0.1282 0.9892 0.0709
vn 0.1019 0.9923 0.0699
vn 0.1239 0.9860 0.1117
vn 0.1216 0.9873 0.1022
vn 0.1026 0.9775 0.1843
vn 0.0963 0.9740 0.2051
vn 0.0637 0.9705 0.2324
vn 0.0780 0.9379 0.3381
vn 0.0830 0.9410 0.3281
vn 0.0988 0.9747 0.2006
vn 0.1035 0.9564 0.2731
vn 0.0878 0.9917 0.0945
vn 0.1203 0.9842 0.1302
vn 0.0563 0.9532 0.2970
vn 0.0586 0.9563 0.2863
vn 0.0870 0.9933 0.0760
vn 0.0529 0.9986 -0.0019
vn 0.0704 0.9975 0.0107
vn 0.0947 0.9955 0.0086
vn 0.1141 0.9932 0.0223
vn 0.0824 0.9966 -0.0096
vn 0.1284 0.9916 0.0159
vn 0.1149 0.9931 0.0233
vn 0.0686 0.9973 0.0268
vn 0.0623 0.9977 0.0256
vn 0.0279 0.9995 0.0116
vn 0.0354 0.9992 0.0166
vn 0.0876 0.9544 0.2855
vn 0.0824 0.9691 0.2323
vn 0.0905 0.9664 0.2404
vn 0.0493 0.9600 0.2755
vn 0.0584 0.9412 0.3327
vn 0.0424 0.9520 0.3031
vn 0.0972 0.9545 0.2819
vn 0.0882 0.9519 0.2934
vn 0.0885 0.9538 0.2870
vn 0.0933 0.9523 0.2905
vn 0.0943 0.9532 0.2871
vn 0.0905 0.9528 0.2896
vn 0.0820 0.9528 0.2922
vn 0.0880 0.9520 0.2931
vn -0.0153 0.9882 0.1523
vn -0.0152 0.9881 0.1530
vn 0.0546 0.9735 0.2219
vn 0.0776 0.9747 0.2098
vn 0.0664 0.9779 0.1984
vn 0.0906 0.9803 0.1755
vn 0.1061 0.9700 0.2189
vn 0.1051 0.9703 0.2180
vn 0.0950 0.9818 0.1645
vn 0.0788 0.9660 0.2462
vn 0.1148 0.9611 0.2512
vn 0.0902 0.9856 0.1428
vn 0.0620 0.9924 0.1059
vn 0.0059 0.9880 0.1542
vn 0.0915 0.9887 0.1186
vn 0.0597 0.9861 0.1551
vn -0.0112 0.9875 0.1573
vn -0.0062 0.9859 0.1670
vn -0.0169 0.9849 0.1722
vn -0.0304 0.9804 0.1946
vn 0.0491 0.9891 0.1391
vn 0.0769 0.9892 0.1250
vn 0.0703 0.9913 0.1114
vn 0.0707 0.9920 0.1051
vn 0.0374 0.9657 0.2568
vn 0.0427 0.9671 0.2506
vn 0.0640 0.9831 0.1717
vn 0.0652 0.9877 0.1421
vn 0.0343 0.9818 0.1867
vn 0.0101 0.9945 0.1044
vn 0.0273 0.9744 0.2230
vn 0.0498 0.9747 0.2177
vn 0.0477 0.9786 0.2004
vn 0.0464 0.9658 0.2552
vn -0.0175 0.9875 0.1565
vn 0.0737 0.9944 0.0759
vn 0.0796 0.9922 0.0955
vn 0.0009 0.9912 0.1327
vn 0.0269 0.9912 0.1299
vn 0.0611 0.9943 0.0868
vn 0.0867 0.9926 0.0853
vn 0.0011 0.9909 0.1349
vn 0.0287 0.9928 0.1162
vn 0.0840 0.9916 0.0986
vn 0.0201 0.9879 0.1535
vn 0.0295 0.9739 0.2250
vn 0.0565 0.9816 0.1824
vn 0.0575 0.9839 0.1692
vn 0.0761 0.9728 0.2187
vn 0.0789 0.9727 0.2180
vn 0.0689 0.9795 0.1893
vn 0.0790 0.9852 0.1523
vn 0.0409 0.9767 0.2105
vn 0.0433 0.9750 0.2181
vn 0.0525 0.9774 0.2046
vn 0.0419 0.9883 0.1467
vn 0.0731 0.9839 0.1630
vn 0.0404 0.9899 0.1359
vn 0.0150 0.9894 0.1444
vn 0.0160 0.9933 0.1142
vn 0.0404 0.9939 0.1023
vn 0.0415 0.9938 0.1035
vn 0.0397 0.9936 0.1054
vn 0.0570 0.9926 0.1068
vn 0.0249 0.9915 0.1276
vn 0.0270 0.9928 0.1167
vn -0.0251 0.9778 0.2080
vn -0.0245 0.9794 0.2005
vn -0.0132 0.9843 0.1760
vn -0.0165 0.9844 0.1750
vn -0.0196 0.9764 0.2153
vn -0.0163 0.9770 0.2125
vn -0.0227 0.9711 0.2376
vn -0.0237 0.9771 0.2114
vn 0.0062 0.9749 0.2227
vn -0.0174 0.9820 0.1880
vn 0.0120 0.9825 0.1857
vn 0.0181 0.9804 0.1959
vn 0.0100 0.9817 0.1904
vn 0.1109 0.9875 0.1124
vn 0.0061 0.9957 0.0925
vn 0.0055 0.9988 0.0486
vn 0.1226 0.9870 0.1040
vn 0.1537 0.9838 -0.0927
vn 0.1251 0.9921 -0.0047
vn 0.0669 0.9969 0.0416
vn 0.0226 0.9997 0.0137
vn 0.0295 0.9868 0.1595
vn 0.0481 0.9743 0.2201
vn 0.0298 0.9757 0.2171
vn 0.0770 0.9667 0.2442
vn 0.0290 0.9756 0.2176
vn 0.0936 0.9700 0.2245
vn 0.1855 0.9726 0.1400
vn 0.1291 0.9894 0.0672
vn 0.1092 0.9877 0.1118
vn 0.2381 0.9698 -0.0538
vn 0.0720 0.9893 0.1265
vn 0.0636 0.9837 0.1684
vn 0.0461 0.9741 0.2214
vn 0.1610 0.9857 0.0495
vn 0.1517 0.9877 0.0369
vn 0.1127 0.9775 0.1786
s off
f 2//1 3//1 8//1
f 1//2 30//2 2//2
f 10//3 30//3 1//3
f 30//4 31//4 2//4
f 31//5 3//5 2//5
f 4//6 8//6 40//6
f 40//7 8//7 39//7
f 39//8 8//8 32//8
f 5//9 36//9 21//9
f 38//10 36//10 5//10
f 8//11 3//11 6//11
f 6//12 32//12 8//12
f 7//13 8//13 4//13
f 2//14 8//14 7//14
f 18//15 21//15 20//15
f 5//16 21//16 18//16
f 9//17 30//17 10//17
f 11//18 9//18 10//18
f 12//19 9//19 11//19
f 48//20 12//20 13//20
f 46//21 48//21 13//21
f 48//22 50//22 12//22
f 50//23 9//23 12//23
f 14//24 46//24 13//24
f 14//25 63//25 46//25
f 63//26 14//26 15//26
f 15//27 14//27 16//27
f 16//28 14//28 17//28
f 21//29 42//29 20//29
f 20//30 42//30 41//30
f 19//31 20//31 41//31
f 18//32 20//32 19//32
f 21//33 36//33 24//33
f 24//34 36//34 37//34
f 25//35 24//35 37//35
f 23//36 21//36 24//36
f 42//37 21//37 23//37
f 22//38 80//38 23//38
f 42//39 23//39 80//39
f 42//40 80//40 83//40
f 23//41 25//41 22//41
f 23//42 24//42 25//42
f 71//43 33//43 51//43
f 52//44 33//44 71//44
f 36//45 32//45 37//45
f 38//46 39//46 36//46
f 39//47 32//47 36//47
f 40//48 39//48 38//48
f 42//49 84//49 43//49
f 41//50 42//50 43//50
f 41//51 43//51 44//51
f 83//52 82//52 84//52
f 42//53 83//53 84//53
f 26//54 66//54 27//54
f 27//55 66//55 28//55
f 53//56 69//56 34//56
f 26//57 27//57 62//57
f 62//58 27//58 49//58
f 65//59 29//59 64//59
f 65//60 64//60 47//60
f 45//61 65//61 47//61
f 34//62 65//62 45//62
f 49//63 27//63 28//63
f 49//64 28//64 30//64
f 30//65 28//65 31//65
f 31//66 28//66 3//66
f 59//67 58//67 32//67
f 79//68 32//68 58//68
f 53//69 34//69 33//69
f 33//70 34//70 45//70
f 35//71 53//71 54//71
f 51//72 33//72 45//72
f 79//73 35//73 81//73
f 32//74 79//74 37//74
f 3//75 59//75 6//75
f 6//76 59//76 32//76
f 45//77 47//77 17//77
f 62//78 49//78 48//78
f 49//79 30//79 9//79
f 47//80 64//80 16//80
f 16//81 64//81 15//81
f 63//82 62//82 46//82
f 46//83 62//83 48//83
f 17//84 47//84 16//84
f 48//85 49//85 50//85
f 50//86 49//86 9//86
f 51//87 45//87 17//87
f 81//88 22//88 79//88
f 53//89 33//89 52//89
f 55//90 53//90 52//90
f 54//91 53//91 55//91
f 75//92 54//92 55//92
f 75//93 55//93 56//93
f 56//94 55//94 52//94
f 66//95 58//95 57//95
f 57//96 58//96 59//96
f 57//97 59//97 3//97
f 28//98 57//98 3//98
f 28//99 66//99 57//99
f 60//100 66//100 26//100
f 66//101 60//101 29//101
f 29//102 60//102 61//102
f 61//103 60//103 62//103
f 60//104 26//104 62//104
f 61//105 62//105 63//105
f 15//106 61//106 63//106
f 64//107 61//107 15//107
f 61//108 64//108 29//108
f 69//109 67//109 34//109
f 34//110 67//110 65//110
f 65//111 67//111 29//111
f 29//112 67//112 66//112
f 66//113 67//113 58//113
f 67//114 68//114 58//114
f 68//115 79//115 58//115
f 69//116 68//116 67//116
f 79//117 68//117 70//117
f 68//118 69//118 70//118
f 70//119 69//119 53//119
f 79//120 70//120 35//120
f 70//121 53//121 35//121
f 74//122 54//122 75//122
f 56//123 52//123 78//123
f 52//124 71//124 78//124
f 74//125 75//125 73//125
f 72//126 73//126 76//126
f 73//127 77//127 76//127
f 73//128 75//128 77//128
f 77//129 56//129 78//129
f 75//130 56//130 77//130
f 37//131 79//131 25//131
f 22//132 81//132 80//132
f 83//133 88//133 82//133
f 80//134 81//134 83//134
f 81//135 88//135 83//135
f 85//136 86//136 88//136
f 74//137 86//137 85//137
f 85//138 54//138 74//138
f 87//139 73//139 72//139
f 54//140 85//140 35//140
f 35//141 88//141 81//141
f 79//142 22//142 25//142
f 74//143 87//143 86//143
f 87//144 74//144 73//144
f 35//145 85//145 88//145
